<svg width="123" height="41" viewBox="0 0 123 41" fill="none" xmlns="http://www.w3.org/2000/svg">
<path d="M12.1445 20.7402L5.62785 27.4038V36.7544H0.5V0.641846H5.62785V20.8477L25.0709 0.641846H30.9466L15.6699 16.871L32.0149 36.7544H26.0324L12.1445 20.7402Z" fill="white"/>
<path d="M69.4053 33.8525L71.435 29.9833C73.7853 31.5954 77.4175 32.7777 80.9429 32.7777C85.5366 32.7777 87.3527 31.3805 87.3527 29.016C87.3527 22.8897 70.1531 28.1561 70.1531 17.3009C70.1531 12.3569 74.5331 9.13257 81.4771 9.13257C85.0025 9.13257 89.062 10.0999 91.4123 11.6046L89.2757 15.4738C86.8186 13.8616 84.1478 13.3242 81.4771 13.3242C77.2039 13.3242 75.0673 14.9364 75.0673 17.0859C75.0673 23.5346 92.2669 18.2682 92.2669 28.9085C92.2669 33.8525 87.7801 36.9693 80.5156 36.9693C76.1356 37.0768 71.6487 35.6796 69.4053 33.8525Z" fill="white"/>
<path d="M122.5 20.2026V36.7542H117.799V33.0999C116.197 35.5719 113.099 36.9691 108.826 36.9691C102.63 36.9691 98.7837 33.6373 98.7837 28.9083C98.7837 24.5017 101.561 20.9549 109.68 20.9549H117.479V19.9876C117.479 15.796 115.022 13.4315 110.215 13.4315C107.01 13.4315 103.698 14.6137 101.561 16.3334L99.5315 12.5717C102.309 10.3146 106.369 9.0249 110.749 9.0249C118.334 9.13238 122.5 12.7866 122.5 20.2026ZM117.586 28.3709V24.5017H110.001C105.087 24.5017 103.698 26.4363 103.698 28.6933C103.698 31.3803 105.941 33.0999 109.68 33.0999C113.419 33.2074 116.411 31.5952 117.586 28.3709Z" fill="white"/>
<path d="M53.5947 29.5534V36.8619L56.6928 35.0348V27.7263L53.5947 29.5534Z" fill="white"/>
<path d="M62.1411 20.6327L49.4283 13.2167L42.3776 9.13257L35.4336 21.2776L35.5404 32.6702L48.1464 40.0862L49.4283 39.3338V28.5861L55.0903 18.5906L60.8592 21.9224V32.6702L62.1411 31.9179V20.6327Z" fill="white"/>
</svg>
